<svg width="202" xmlns="http://www.w3.org/2000/svg" height="77" fill="none"><g class="frame-container-wrapper"><g class="frame-container-blur"><g class="frame-container-shadows"><g class="fills"><rect rx="0" ry="0" width="202" height="77" transform="matrix(1.000000, 0.000000, 0.000000, 1.000000, 0.000000, 0.000000)" class="frame-background"/></g><g class="frame-children"><path d="M32.068,2.078C31.284,1.948,30.526,2.005,29.973,2.218L7.762,10.763C7.220,10.972,7.128,11.212,7.114,11.279L7.111,11.313C7.110,11.405,7.156,11.653,7.570,11.996L7.572,11.997L51.097,48.176L51.098,48.177C51.340,48.377,51.644,48.553,51.991,48.695C52.301,48.821,52.645,48.921,53.008,48.984C53.021,48.986,53.035,48.988,53.048,48.990C53.693,49.099,54.324,49.080,54.838,48.950C54.891,48.937,54.943,48.922,54.993,48.907C55.049,48.889,55.103,48.871,55.155,48.851L77.365,40.306C77.384,40.299,77.402,40.291,77.420,40.284C77.468,40.264,77.513,40.244,77.553,40.224C77.915,40.045,77.991,39.862,78.005,39.800L78.007,39.794L78.008,39.788C78.017,39.730,78.018,39.462,77.546,39.071L77.544,39.070L34.018,2.891L34.017,2.890C33.554,2.507,32.851,2.208,32.068,2.078ZZM52.293,55.923C53.319,56.086,54.428,56.033,55.377,55.669L77.588,47.124C78.536,46.759,79.319,46.066,79.485,45.060L79.488,45.039L79.490,45.021C79.491,45.012,79.492,45.003,79.493,44.995L79.975,40.081C80.123,39.079,79.595,38.171,78.807,37.518L78.806,37.517L35.280,1.338L35.278,1.336C34.482,0.677,33.427,0.268,32.390,0.096C31.353,-0.076,30.225,-0.029,29.265,0.341L7.054,8.885C6.125,9.243,5.357,9.915,5.165,10.878C5.159,10.903,5.154,10.928,5.150,10.954C5.135,11.043,5.126,11.132,5.122,11.220L4.659,15.931C4.509,16.933,5.040,17.842,5.822,18.490L49.350,54.670L49.352,54.672C50.151,55.331,51.205,55.742,52.293,55.923ZL52.293,55.923ZC52.275,55.921,52.284,55.922,52.293,55.923ZZM51.248,50.559C51.432,50.634,51.619,50.700,51.809,50.759L51.531,53.645C51.174,53.501,50.860,53.321,50.612,53.117L50.611,53.116L7.085,16.938L7.084,16.938C6.612,16.546,6.618,16.280,6.627,16.226C6.630,16.204,6.633,16.181,6.636,16.158L6.847,13.998L49.836,49.731C50.251,50.074,50.734,50.349,51.248,50.559ZZM53.496,54.000L53.779,51.070C54.355,51.078,54.934,51.013,55.473,50.858C55.605,50.821,55.735,50.777,55.862,50.729L55.863,50.728L77.759,42.305L77.519,44.748C77.498,44.826,77.390,45.050,76.880,45.246L54.670,53.791C54.338,53.918,53.934,53.990,53.496,54.000ZZM22.172,50.092C23.700,49.616,25.362,49.913,26.637,50.890L40.286,61.342L23.553,70.446C23.070,70.709,22.889,71.318,23.149,71.806C23.410,72.295,24.013,72.478,24.496,72.215L42.028,62.677L45.099,65.029C45.746,65.524,45.565,66.551,44.788,66.790L25.378,72.772C23.860,73.240,22.212,72.947,20.943,71.985L2.387,57.911C1.737,57.418,1.915,56.389,2.692,56.148L22.172,50.092ZZM43.953,61.630L46.300,63.427C48.240,64.913,47.697,67.995,45.369,68.712L25.958,74.694C23.833,75.349,21.526,74.939,19.749,73.592L1.193,59.518C-0.756,58.040,-0.223,54.951,2.107,54.227L21.587,48.171C23.727,47.506,26.054,47.922,27.838,49.288L42.211,60.295L49.407,56.380C49.890,56.117,50.493,56.300,50.754,56.789C51.014,57.277,50.833,57.886,50.350,58.150L43.953,61.630ZZM5.760,21.106C6.305,21.180,6.687,21.685,6.615,22.235L2.637,52.374C2.565,52.924,2.065,53.311,1.520,53.238C0.976,53.164,0.593,52.659,0.666,52.109L4.643,21.969C4.716,21.419,5.216,21.033,5.760,21.106ZZM28.930,40.044C29.127,39.526,28.872,38.945,28.359,38.746C27.847,38.547,27.271,38.805,27.074,39.323L24.588,45.853C24.391,46.371,24.647,46.952,25.159,47.152C25.672,47.351,26.247,47.092,26.444,46.574L28.930,40.044ZZM78.099,49.758C78.359,50.247,78.177,50.856,77.693,51.118L49.850,66.188C49.366,66.450,48.764,66.266,48.504,65.777C48.245,65.287,48.427,64.679,48.911,64.417L76.753,49.347C77.238,49.085,77.840,49.269,78.099,49.758ZZ" fill-rule="evenodd" clip-rule="evenodd" style="fill: rgb(0, 0, 0);" class="fills"/><path d="M201.483,27.554C201.397,24.021,200.051,20.343,197.523,16.810C194.998,13.276,191.350,9.978,186.980,7.264C182.536,4.504,177.425,2.411,172.200,1.209C160.327,-1.520,148.707,0.408,139.410,6.624C138.981,6.300,138.556,5.972,138.130,5.644C135.563,3.661,132.086,3.442,129.269,5.086C129.269,5.086,113.807,14.116,113.767,14.135C112.679,14.709,112.000,15.830,112.000,17.064L112.000,42.788C112.000,44.927,113.276,46.813,115.254,47.590C130.756,53.704,147.108,63.104,165.251,76.332C165.856,76.774,166.570,77.000,167.288,77.000C167.822,77.000,168.361,76.875,168.860,76.621C168.962,76.571,183.008,68.426,183.008,68.426C184.666,67.466,185.696,65.682,185.696,63.765L185.696,56.792L194.428,51.748C194.440,51.740,194.452,51.736,194.463,51.728C198.107,49.347,200.367,46.013,201.369,41.535C202.169,37.963,202.208,33.652,201.483,27.554ZZM171.876,2.622C182.001,4.949,191.377,10.708,196.344,17.653C198.782,21.062,200.008,24.458,200.046,27.699L200.039,27.699C200.043,27.726,200.046,27.754,200.046,27.777C200.050,28.722,199.953,29.655,199.758,30.572C197.179,22.151,190.632,15.378,181.072,11.325C175.325,8.889,168.992,7.670,162.754,7.803C156.612,7.932,151.130,9.369,146.858,11.957C144.736,10.520,142.660,9.049,140.635,7.545C149.527,1.779,160.577,0.026,171.876,2.622ZZM181.330,30.451C169.344,25.415,158.248,19.519,148.204,12.856C156.546,8.167,169.621,8.050,180.511,12.665C190.456,16.881,196.988,24.142,198.928,33.127C197.792,35.699,195.795,38.097,192.946,40.220L185.693,44.410L185.693,37.023C185.693,34.146,183.980,31.565,181.330,30.451ZZM129.998,6.339C132.301,4.992,135.145,5.172,137.244,6.792C149.858,16.545,164.501,24.954,180.768,31.787C182.878,32.673,184.244,34.731,184.244,37.022L184.244,45.248L180.061,47.665L180.061,40.302C180.061,37.424,178.349,34.844,175.695,33.731C159.546,26.946,145.012,18.602,132.495,8.929C131.266,7.976,129.823,7.437,128.344,7.316L129.998,6.339ZZM169.301,73.537C169.301,74.310,168.891,74.978,168.204,75.325C167.514,75.677,166.730,75.614,166.105,75.158C147.860,61.856,131.404,52.397,115.785,46.239C114.368,45.681,113.451,44.326,113.451,42.784L113.451,17.060C113.451,16.357,113.822,15.744,114.443,15.416C114.720,15.272,115.016,15.197,115.309,15.197C115.675,15.197,116.034,15.311,116.354,15.529C134.209,27.847,151.482,37.759,167.693,44.994C168.668,45.427,169.297,46.403,169.297,47.473L169.301,73.537ZZM174.681,69.297C174.681,70.566,174.092,71.749,173.113,72.483L170.733,73.861C170.741,73.756,170.748,73.647,170.748,73.537L170.748,47.477C170.748,45.834,169.781,44.342,168.287,43.675C152.157,36.475,134.962,26.606,117.178,14.338C117.037,14.241,116.893,14.159,116.745,14.085L120.502,11.887C122.808,10.536,125.629,10.731,127.681,12.320C140.296,22.072,154.939,30.482,171.205,37.314C173.316,38.201,174.681,40.258,174.681,42.550ZM178.610,67.041C178.610,68.298,178.013,69.473,177.026,70.215L175.895,70.871C176.043,70.367,176.125,69.840,176.125,69.297L176.125,42.554C176.125,39.676,174.412,37.096,171.759,35.983C155.610,29.198,141.076,20.854,128.559,11.180C127.354,10.251,125.941,9.720,124.482,9.599C126.757,8.299,129.546,8.483,131.603,10.076C144.217,19.828,158.860,28.238,175.126,35.070C177.237,35.956,178.603,38.014,178.603,40.306L178.603,48.508L177.233,49.301C177.007,49.430,176.870,49.672,176.870,49.929L176.870,60.635C176.870,60.892,177.007,61.134,177.233,61.263C177.346,61.330,177.471,61.361,177.596,61.361C177.721,61.361,177.846,61.330,177.959,61.263L178.606,60.892L178.610,67.041ZZM184.245,63.765C184.245,65.167,183.491,66.471,182.282,67.174L179.836,68.591C179.984,68.095,180.066,67.572,180.066,67.041L180.066,60.045L184.248,57.628L184.245,63.765ZZM193.683,50.502L178.330,59.373L178.330,50.342L193.710,41.456C193.733,41.445,193.757,41.429,193.780,41.410C197.065,38.962,199.317,36.194,200.503,33.148C200.830,40.847,199.379,46.770,193.683,50.502ZZM165.820,47.504C150.549,40.637,134.337,31.419,117.630,20.105C117.408,19.956,117.123,19.941,116.885,20.066C116.647,20.191,116.498,20.437,116.498,20.706L116.498,42.753C116.498,43.050,116.682,43.319,116.959,43.428C132.015,49.374,147.763,58.287,165.102,70.680C165.227,70.770,165.375,70.816,165.523,70.816C165.637,70.816,165.750,70.789,165.855,70.734C166.097,70.610,166.249,70.360,166.249,70.090L166.249,48.172C166.249,47.887,166.081,47.629,165.820,47.504ZZM164.798,68.681C147.989,56.769,132.644,48.114,117.950,42.261L117.950,22.073C134.169,32.981,149.925,41.917,164.798,48.640L164.798,68.681ZZ" style="fill: rgb(0, 0, 0); fill-opacity: 1;" class="fills"/></g></g></g></g></svg>