<svg width="38" xmlns="http://www.w3.org/2000/svg" height="43" fill="none"><g style="fill: rgb(0, 0, 0);"><path d="M29.940,39.754C31.502,42.332,33.117,43.000,34.371,43.000C34.870,42.998,35.363,42.896,35.824,42.700C36.773,42.291,37.443,41.401,37.592,40.356C39.543,27.099,33.914,16.030,33.053,14.434C33.609,5.742,32.415,0.918,29.504,0.094C28.702,-0.137,27.840,0.063,27.214,0.627C26.533,1.228,26.189,2.137,26.296,3.051C26.361,3.580,26.353,4.115,26.273,4.642C24.134,2.756,17.950,-1.657,10.424,2.257C1.224,7.040,6.217,20.200,6.509,20.944C6.737,21.779,3.499,23.871,2.430,24.561C1.843,24.940,1.336,25.268,1.005,25.526C0.194,26.160,-0.344,27.333,0.256,28.255C1.762,30.573,5.813,29.343,7.814,28.547C7.002,32.219,3.542,33.733,3.382,33.801C3.215,33.871,3.083,34.010,3.018,34.185C2.954,34.359,2.963,34.552,3.043,34.720C3.082,34.799,4.001,36.679,5.602,37.089C6.446,37.289,7.332,37.081,8.007,36.526C8.654,36.049,9.207,35.859,9.604,35.973C9.870,36.068,10.087,36.269,10.207,36.530C10.445,37.265,11.601,40.564,13.305,40.974C13.924,41.114,14.568,40.892,14.980,40.397C15.808,39.497,17.116,39.267,18.188,39.834C18.974,40.759,19.857,41.249,20.816,41.290C21.805,41.291,22.757,40.897,23.467,40.190C23.487,40.169,23.505,40.148,23.522,40.125C25.410,37.584,27.355,37.841,28.655,38.504C29.187,38.791,29.632,39.224,29.940,39.754ZZM26.880,36.701C25.558,36.701,24.000,37.287,22.512,39.267C22.065,39.699,21.475,39.942,20.860,39.947C20.255,39.917,19.667,39.556,19.110,38.872C19.063,38.814,19.007,38.765,18.944,38.726C17.343,37.785,15.322,38.085,14.047,39.454C13.799,39.712,13.662,39.680,13.604,39.666C12.857,39.486,11.872,37.421,11.442,36.082C11.438,36.069,11.433,36.057,11.429,36.045C11.164,35.398,10.636,34.902,9.984,34.687C9.171,34.441,8.249,34.693,7.242,35.434C6.878,35.753,6.392,35.883,5.923,35.786C5.368,35.584,4.892,35.201,4.568,34.696C5.971,33.901,9.025,31.701,9.277,27.507C9.291,27.270,9.182,27.043,8.991,26.910C8.800,26.776,8.554,26.757,8.344,26.857C6.878,27.563,2.444,29.199,1.346,27.510C1.226,27.326,1.455,26.864,1.800,26.594C2.083,26.373,2.568,26.060,3.128,25.698C5.452,24.197,8.344,22.329,7.747,20.502C7.742,20.487,7.736,20.471,7.730,20.456C7.678,20.330,2.670,7.795,11.016,3.455C19.441,-0.925,25.845,6.025,26.113,6.322C26.256,6.480,26.464,6.559,26.673,6.535C26.882,6.509,27.066,6.382,27.168,6.193C27.195,6.143,27.831,4.937,27.597,2.895C27.541,2.425,27.717,1.957,28.067,1.647C28.363,1.377,28.773,1.279,29.155,1.390C30.421,1.748,32.439,3.933,31.733,14.544C31.724,14.677,31.754,14.811,31.819,14.927C31.884,15.042,38.294,26.582,36.296,40.155C36.218,40.733,35.851,41.226,35.329,41.456C33.474,42.234,31.979,40.574,31.053,39.044C30.617,38.302,29.988,37.699,29.238,37.301C28.507,36.918,27.700,36.713,26.880,36.701ZZ" class="fills"/><path d="M14.071,12.750C12.627,12.755,11.459,13.957,11.461,15.438C11.461,15.809,11.754,16.110,12.116,16.110C12.477,16.110,12.771,15.809,12.771,15.438C12.768,14.699,13.350,14.098,14.071,14.094C14.432,14.094,14.726,13.793,14.726,13.422C14.726,13.051,14.432,12.750,14.071,12.750ZZ" class="fills"/><path d="M18.437,11.601C18.599,11.665,18.779,11.660,18.938,11.588C19.097,11.516,19.221,11.381,19.283,11.215C19.406,10.881,19.655,10.613,19.972,10.468C20.286,10.325,20.643,10.317,20.963,10.446C21.181,10.533,21.428,10.494,21.611,10.343C21.794,10.193,21.884,9.954,21.848,9.717C21.812,9.479,21.655,9.280,21.437,9.193C20.790,8.936,20.070,8.953,19.436,9.242C18.803,9.531,18.307,10.068,18.060,10.733C17.931,11.079,18.099,11.468,18.437,11.601ZZ" class="fills"/><path d="M22.362,17.537C22.008,16.593,21.313,15.824,20.422,15.391C19.962,15.185,19.439,15.179,18.975,15.375C17.799,15.896,17.442,17.659,18.162,19.390C18.515,20.334,19.210,21.103,20.101,21.537C20.344,21.639,20.603,21.693,20.866,21.696C21.101,21.696,21.333,21.647,21.549,21.552C22.724,21.032,23.081,19.269,22.362,17.537ZZM21.030,20.318C20.885,20.370,20.725,20.359,20.588,20.289C20.019,19.989,19.583,19.479,19.367,18.862C18.932,17.818,19.078,16.793,19.493,16.610C19.546,16.587,19.602,16.576,19.659,16.576C19.754,16.579,19.848,16.600,19.936,16.639C20.504,16.939,20.940,17.448,21.157,18.065C21.591,19.110,21.445,20.134,21.030,20.318ZZ" class="fills"/></g></svg>