<svg width="90" xmlns="http://www.w3.org/2000/svg" height="64.792" fill="none"><path d="M89.540,10.112C87.680,9.582,85.790,9.092,83.900,8.632L83.900,1.822L83.420,1.692C77.110,-0.078,70.330,-0.468,63.860,0.572C59.770,1.232,55.760,2.452,51.980,4.202C51.140,4.572,50.330,4.982,49.520,5.402C47.950,6.252,46.450,7.172,44.990,8.182C43.540,7.182,42.020,6.252,40.450,5.402C39.650,4.992,38.860,4.582,38.030,4.202C34.250,2.462,30.230,1.232,26.120,0.572C19.640,-0.468,12.880,-0.088,6.560,1.692L6.080,1.822L6.080,8.632C4.190,9.092,2.300,9.582,0.440,10.112L0.000,10.252L0.000,64.792L90.000,64.792L90.000,10.252L89.540,10.112ZZM45.960,9.062C47.940,7.702,50.050,6.502,52.230,5.492C53.100,5.072,54.000,4.682,54.900,4.332C57.860,3.172,60.930,2.322,64.050,1.822C70.180,0.842,76.590,1.182,82.590,2.782L82.590,8.322L82.590,9.632L82.590,55.572C76.780,54.892,70.920,54.982,65.140,55.832C58.480,56.822,52.030,58.792,45.940,61.692L45.960,9.062ZZM7.390,2.792C13.410,1.182,19.800,0.852,25.930,1.832C29.050,2.332,32.140,3.182,35.100,4.352C36.000,4.702,36.890,5.072,37.760,5.492C39.950,6.512,42.050,7.702,44.030,9.062L44.030,61.702C37.950,58.792,31.490,56.832,24.830,55.842C21.600,55.382,18.350,55.132,15.100,55.132C12.530,55.132,9.940,55.282,7.390,55.582L7.390,9.662L7.390,8.342L7.390,2.792ZZM1.290,11.212C2.880,10.772,4.490,10.352,6.110,9.962L6.110,57.032L6.830,56.942C12.770,56.182,18.760,56.252,24.660,57.112C31.510,58.132,38.160,60.212,44.400,63.312L44.680,63.452L44.680,63.502L1.290,63.502L1.290,11.212ZZM88.710,63.502L45.320,63.502L45.320,63.452L45.600,63.312C51.840,60.212,58.480,58.132,65.340,57.112C71.240,56.252,77.230,56.182,83.170,56.942L83.890,57.032L83.890,9.952C85.510,10.352,87.120,10.762,88.710,11.212L88.710,63.502ZZ" style="fill: rgb(0, 0, 0); fill-opacity: 1;" class="fills"/><rect rx="0" ry="0" x="23" y="19" transform="matrix(1.000000, 0.000000, 0.000000, 1.000000, 0.000000, 0.000000)" width="22" height="13" style="fill: rgb(0, 0, 0); fill-opacity: 1;" class="fills"/><rect rx="0" ry="0" x="62" y="26" transform="matrix(1.000000, 0.000000, 0.000000, 1.000000, 0.000000, 0.000000)" width="17" height="22" class="fills"/><g class="strokes"><g class="inner-stroke-shape" transform="matrix(1.000000, 0.000000, 0.000000, 1.000000, 0.000000, 0.000000)"><defs><clipPath id="b"><use href="#a"/></clipPath><rect rx="0" ry="0" x="62" y="26" width="17" height="22" id="a" style="fill: none; stroke-width: 2; stroke: rgb(0, 0, 0); stroke-opacity: 1;"/></defs><use href="#a" clip-path="url('#b')"/></g></g></svg>