<svg width="92" xmlns="http://www.w3.org/2000/svg" height="81" viewBox="-954 -1138 92 81" fill="none"><path d="M-863.620,-1089.251L-863.620,-1118.351C-863.620,-1119.457,-864.192,-1120.447,-865.151,-1120.998C-865.245,-1121.053,-865.343,-1121.099,-865.441,-1121.146L-892.798,-1136.918C-895.300,-1138.361,-898.409,-1138.361,-900.911,-1136.915L-938.718,-1115.094C-940.594,-1114.011,-941.760,-1111.994,-941.760,-1109.828L-941.760,-1092.535C-944.364,-1091.081,-947.187,-1089.439,-948.930,-1088.418C-949.360,-1088.266,-949.775,-1088.066,-950.171,-1087.824C-952.606,-1086.315,-954.000,-1083.183,-954.000,-1079.230C-954.000,-1071.802,-949.117,-1063.353,-943.112,-1060.394C-941.667,-1059.682,-940.249,-1059.326,-938.918,-1059.326C-937.646,-1059.326,-936.459,-1059.651,-935.410,-1060.300C-935.179,-1060.445,-934.956,-1060.609,-934.744,-1060.781L-925.093,-1066.293C-925.093,-1066.293,-909.850,-1057.504,-909.827,-1057.489C-909.259,-1057.164,-908.641,-1057.000,-908.018,-1057.000C-907.400,-1057.000,-906.781,-1057.164,-906.221,-1057.489L-882.615,-1071.099L-869.028,-1063.092C-868.684,-1062.888,-868.304,-1062.787,-867.924,-1062.787C-867.556,-1062.787,-867.184,-1062.884,-866.847,-1063.076C-866.714,-1063.150,-863.265,-1065.414,-863.265,-1065.414C-862.474,-1065.922,-862.000,-1066.790,-862.000,-1067.729L-862.000,-1086.327C-862.000,-1087.512,-862.619,-1088.622,-863.620,-1089.251ZZM-900.190,-1135.659C-898.138,-1136.844,-895.585,-1136.844,-893.530,-1135.663L-868.155,-1121.033C-868.174,-1121.022,-868.194,-1121.014,-868.213,-1121.002L-908.194,-1097.954L-936.870,-1114.489ZM-936.180,-1061.534C-937.883,-1060.479,-940.115,-1060.533,-942.468,-1061.695C-948.024,-1064.435,-952.543,-1072.302,-952.543,-1079.230C-952.543,-1082.667,-951.396,-1085.349,-949.399,-1086.588C-948.588,-1087.093,-947.660,-1087.343,-946.654,-1087.343C-945.546,-1087.343,-944.344,-1087.038,-943.110,-1086.428C-937.555,-1083.687,-933.036,-1075.821,-933.036,-1068.892C-933.036,-1065.456,-934.183,-1062.774,-936.180,-1061.534ZZM-930.953,-1064.623L-932.582,-1063.692C-931.932,-1065.155,-931.583,-1066.922,-931.583,-1068.892C-931.583,-1076.321,-936.466,-1084.770,-942.472,-1087.729C-943.513,-1088.241,-944.539,-1088.570,-945.530,-1088.711C-944.849,-1089.105,-944.171,-1089.492,-943.506,-1089.872L-943.502,-1089.864C-941.830,-1090.431,-940.138,-1090.274,-938.333,-1089.383C-932.777,-1086.642,-928.259,-1078.776,-928.259,-1071.847C-928.259,-1068.336,-929.191,-1065.846,-930.953,-1064.623ZZM-927.750,-1066.453C-927.128,-1067.915,-926.803,-1069.725,-926.803,-1071.848C-926.803,-1079.277,-931.685,-1087.725,-937.691,-1090.685C-938.631,-1091.150,-939.567,-1091.443,-940.495,-1091.572C-937.934,-1092.999,-935.976,-1094.032,-935.534,-1094.141C-934.234,-1094.294,-932.821,-1093.996,-931.329,-1093.261C-925.773,-1090.521,-921.254,-1082.654,-921.254,-1075.726C-921.254,-1072.293,-922.397,-1069.615,-924.390,-1068.372L-927.750,-1066.453ZZM-930.413,-1094.427C-929.387,-1094.962,-929.070,-1095.080,-928.980,-1095.107C-927.919,-1095.228,-926.760,-1094.986,-925.538,-1094.380C-920.922,-1092.104,-917.167,-1085.567,-917.167,-1079.805C-917.167,-1076.974,-918.103,-1074.765,-919.735,-1073.749L-919.939,-1073.631C-919.845,-1074.300,-919.798,-1075.000,-919.798,-1075.727C-919.798,-1083.042,-924.536,-1091.346,-930.413,-1094.427ZZM-923.635,-1067.132L-923.635,-1067.132ZC-922.096,-1068.086,-920.973,-1069.685,-920.354,-1071.722L-918.999,-1072.496C-918.991,-1072.500,-918.984,-1072.504,-918.976,-1072.508C-916.901,-1073.795,-915.710,-1076.453,-915.710,-1079.804C-915.710,-1086.063,-919.829,-1093.187,-924.892,-1095.681C-926.380,-1096.416,-927.821,-1096.705,-929.175,-1096.545C-929.375,-1096.522,-929.673,-1096.486,-932.124,-1095.161C-933.365,-1095.575,-934.571,-1095.720,-935.722,-1095.583C-936.200,-1095.528,-938.056,-1094.574,-940.307,-1093.339L-940.307,-1109.827C-940.307,-1111.348,-939.551,-1112.771,-938.310,-1113.631L-909.536,-1097.042C-910.847,-1095.900,-911.630,-1094.227,-911.630,-1092.452L-911.630,-1060.604C-911.630,-1060.463,-911.623,-1060.326,-911.607,-1060.189L-923.635,-1067.132ZZM-906.948,-1058.746C-907.622,-1058.359,-908.424,-1058.359,-909.102,-1058.750C-909.775,-1059.137,-910.174,-1059.833,-910.174,-1060.607L-910.174,-1092.455C-910.174,-1094.105,-909.286,-1095.638,-907.856,-1096.463L-867.485,-1119.738C-866.984,-1120.027,-866.381,-1120.027,-865.880,-1119.738C-865.379,-1119.448,-865.077,-1118.928,-865.077,-1118.350L-865.077,-1090.109L-866.964,-1091.220L-866.964,-1111.390C-866.964,-1111.652,-867.109,-1111.898,-867.336,-1112.023C-867.567,-1112.152,-867.849,-1112.144,-868.072,-1112.008L-884.740,-1101.697L-886.393,-1102.671C-886.631,-1102.812,-886.925,-1102.804,-887.156,-1102.655L-890.907,-1100.239C-891.115,-1100.106,-891.240,-1099.875,-891.240,-1099.629L-891.240,-1076.589C-891.240,-1076.331,-891.103,-1076.092,-890.884,-1075.963L-884.055,-1071.936L-906.948,-1058.746ZZM-868.417,-1110.089L-868.417,-1092.081L-883.323,-1100.870ZM-867.211,-1064.954C-867.211,-1064.579,-867.466,-1064.395,-867.571,-1064.333C-867.681,-1064.270,-867.967,-1064.149,-868.292,-1064.337L-889.787,-1077.008L-889.787,-1098.363L-867.920,-1085.473C-867.481,-1085.215,-867.211,-1084.741,-867.211,-1084.233ZM-863.456,-1067.723C-863.456,-1067.277,-863.679,-1066.870,-864.055,-1066.628L-865.755,-1065.533L-865.755,-1084.230C-865.755,-1085.250,-866.299,-1086.204,-867.180,-1086.720L-889.129,-1099.658L-886.745,-1101.190L-864.447,-1088.046C-863.836,-1087.686,-863.456,-1087.021,-863.456,-1086.314L-863.456,-1067.723ZZM-905.077,-1103.696C-904.951,-1103.696,-904.822,-1103.727,-904.712,-1103.793L-892.657,-1110.780C-892.434,-1110.909,-892.293,-1111.148,-892.293,-1111.410C-892.293,-1111.668,-892.430,-1111.906,-892.653,-1112.039L-913.715,-1124.273C-913.942,-1124.406,-914.220,-1124.406,-914.447,-1124.273L-926.530,-1117.235C-926.753,-1117.106,-926.890,-1116.864,-926.890,-1116.606C-926.890,-1116.348,-926.753,-1116.109,-926.526,-1115.977L-905.434,-1103.790C-905.320,-1103.723,-905.195,-1103.692,-905.077,-1103.696ZZM-914.086,-1122.807L-894.470,-1111.413L-905.077,-1105.264L-924.721,-1116.614ZM-893.667,-1090.735C-893.894,-1090.864,-894.172,-1090.864,-894.399,-1090.731L-906.530,-1083.588C-906.753,-1083.459,-906.886,-1083.221,-906.886,-1082.963L-906.886,-1073.040C-906.886,-1072.778,-906.745,-1072.539,-906.518,-1072.410C-906.404,-1072.348,-906.283,-1072.312,-906.158,-1072.312C-906.029,-1072.312,-905.903,-1072.348,-905.790,-1072.414L-893.659,-1079.557C-893.436,-1079.686,-893.303,-1079.925,-893.303,-1080.183L-893.303,-1090.106C-893.303,-1090.368,-893.444,-1090.606,-893.667,-1090.735ZZM-894.756,-1080.597L-905.429,-1074.310L-905.429,-1082.544L-894.756,-1088.831ZM-943.643,-1085.359C-944.712,-1085.887,-945.726,-1086.153,-946.658,-1086.153C-950.115,-1086.153,-951.348,-1082.579,-951.348,-1079.232C-951.348,-1072.824,-947.038,-1065.282,-941.940,-1062.769C-940.871,-1062.241,-939.857,-1061.975,-938.925,-1061.975C-937.617,-1061.975,-936.497,-1062.530,-935.691,-1063.582C-934.751,-1064.806,-934.234,-1066.694,-934.234,-1068.895C-934.234,-1075.303,-938.545,-1082.846,-943.643,-1085.359ZZM-936.846,-1064.465C-937.382,-1063.766,-938.063,-1063.425,-938.925,-1063.425C-939.634,-1063.425,-940.428,-1063.640,-941.294,-1064.071C-945.953,-1066.369,-949.892,-1073.313,-949.892,-1079.232C-949.892,-1080.147,-949.735,-1084.702,-946.654,-1084.702C-945.945,-1084.702,-945.150,-1084.487,-944.285,-1084.057C-939.626,-1081.758,-935.687,-1074.814,-935.687,-1068.895C-935.687,-1067.011,-936.098,-1065.439,-936.846,-1064.465ZZ" style="fill: rgb(0, 0, 0); fill-opacity: 1;" class="fills"/></svg>