<svg width="70.723" xmlns="http://www.w3.org/2000/svg" height="89.532" viewBox="-464 -1147 70.723 89.532" fill="none"><path d="M-393.277,-1083.554C-393.277,-1084.624,-393.832,-1085.578,-394.757,-1086.109L-412.819,-1096.492L-412.819,-1103.632C-412.819,-1104.851,-413.276,-1106.015,-414.171,-1107.101C-413.800,-1108.175,-412.980,-1109.363,-412.007,-1110.765C-409.839,-1113.886,-406.870,-1118.160,-406.597,-1124.925C-406.370,-1130.554,-408.452,-1135.945,-412.456,-1140.113C-416.663,-1144.492,-422.561,-1147.000,-428.644,-1147.000C-440.800,-1147.000,-450.691,-1137.109,-450.691,-1124.953C-450.691,-1118.648,-447.574,-1114.039,-445.297,-1110.676C-444.375,-1109.313,-443.547,-1108.086,-443.152,-1107.067C-444.027,-1105.992,-444.472,-1104.840,-444.472,-1103.637L-444.472,-1096.879L-462.523,-1086.449C-463.449,-1085.914,-464.000,-1084.961,-464.000,-1083.890C-464.000,-1083.871,-464.000,-1083.855,-463.996,-1083.840L-463.996,-1078.848C-463.996,-1077.687,-463.371,-1076.609,-462.367,-1076.027L-431.808,-1058.382C-430.753,-1057.773,-429.570,-1057.468,-428.386,-1057.468C-427.203,-1057.468,-426.019,-1057.773,-424.964,-1058.382L-394.909,-1075.734C-393.905,-1076.312,-393.280,-1077.394,-393.280,-1078.555C-393.280,-1078.555,-393.277,-1083.515,-393.277,-1083.554ZZM-444.093,-1111.488C-446.386,-1114.875,-449.237,-1119.094,-449.237,-1124.953C-449.237,-1136.308,-439.999,-1145.547,-428.643,-1145.547C-422.956,-1145.547,-417.436,-1143.199,-413.502,-1139.106C-409.776,-1135.227,-407.838,-1130.211,-408.045,-1124.981C-408.299,-1118.641,-411.014,-1114.731,-413.194,-1111.594C-414.666,-1109.477,-415.827,-1107.801,-415.827,-1105.969C-415.827,-1102.605,-421.694,-1099.762,-428.636,-1099.762C-435.581,-1099.762,-441.445,-1102.606,-441.445,-1105.969C-441.445,-1107.586,-442.609,-1109.309,-444.093,-1111.488ZZM-428.644,-1080.941C-434.476,-1080.941,-439.406,-1083.304,-439.406,-1086.097L-439.406,-1086.496C-436.601,-1085.121,-432.840,-1084.289,-428.644,-1084.289C-424.449,-1084.289,-420.687,-1085.121,-417.882,-1086.496L-417.882,-1086.097C-417.882,-1083.300,-422.812,-1080.941,-428.644,-1080.941ZZM-417.882,-1082.926L-417.882,-1081.539C-417.882,-1078.742,-422.812,-1076.383,-428.644,-1076.383C-434.476,-1076.383,-439.406,-1078.746,-439.406,-1081.539L-439.406,-1082.926C-437.363,-1080.863,-433.355,-1079.492,-428.644,-1079.492C-423.933,-1079.492,-419.925,-1080.863,-417.882,-1082.926ZZM-428.644,-1085.746C-436.433,-1085.746,-443.015,-1088.957,-443.015,-1092.754L-443.015,-1100.043C-440.531,-1097.144,-435.097,-1095.179,-428.644,-1095.179C-422.191,-1095.179,-416.757,-1097.144,-414.273,-1100.043L-414.273,-1092.754C-414.273,-1088.957,-420.855,-1085.746,-428.644,-1085.746ZZM-428.644,-1096.629C-436.433,-1096.629,-443.015,-1099.840,-443.015,-1103.637C-443.015,-1104.062,-442.929,-1104.484,-442.769,-1104.898C-441.823,-1101.129,-435.960,-1098.312,-428.644,-1098.312C-421.327,-1098.312,-415.464,-1101.129,-414.519,-1104.898C-414.355,-1104.484,-414.273,-1104.062,-414.273,-1103.637C-414.273,-1099.836,-420.855,-1096.629,-428.644,-1096.629ZZM-394.730,-1078.555C-394.730,-1077.910,-395.078,-1077.313,-395.632,-1076.992L-425.687,-1059.640C-427.351,-1058.679,-429.414,-1058.679,-431.078,-1059.640L-461.637,-1077.285C-462.192,-1077.606,-462.539,-1078.203,-462.539,-1078.848L-462.539,-1081.352C-462.531,-1081.348,-462.524,-1081.344,-462.516,-1081.336L-431.895,-1063.656C-430.793,-1063.019,-429.559,-1062.703,-428.324,-1062.703C-427.090,-1062.703,-425.856,-1063.023,-424.754,-1063.660L-394.750,-1081.000C-394.742,-1081.004,-394.735,-1081.008,-394.727,-1081.012L-394.730,-1078.555ZZM-395.480,-1082.254L-425.484,-1064.914C-427.238,-1063.902,-429.418,-1063.898,-431.171,-1064.914L-461.792,-1082.594C-462.261,-1082.864,-462.542,-1083.352,-462.542,-1083.895C-462.542,-1084.438,-462.261,-1084.922,-461.792,-1085.196L-444.468,-1095.204L-444.468,-1092.754C-444.468,-1090.657,-443.109,-1088.762,-440.828,-1087.301L-440.855,-1087.301L-440.855,-1081.544C-440.855,-1077.837,-435.492,-1074.934,-428.644,-1074.934C-421.796,-1074.934,-416.433,-1077.836,-416.433,-1081.544L-416.433,-1087.301L-416.460,-1087.301C-414.179,-1088.762,-412.820,-1090.657,-412.820,-1092.754L-412.820,-1094.825L-395.480,-1084.860C-395.007,-1084.590,-394.726,-1084.102,-394.726,-1083.559C-394.726,-1083.016,-395.007,-1082.528,-395.480,-1082.254ZZ" style="fill: rgb(0, 0, 0); fill-opacity: 1;" class="fills"/></svg>