<svg width="314" xmlns="http://www.w3.org/2000/svg" height="129" id="screenshot-e3c3a04a-51ed-80fe-8005-ffc945e85dcf" fill="none" version="1.1"><style>/* cyrillic-ext */
@font-face {
  font-family: &apos;Inter&apos;;
  font-style: normal;
  font-weight: 400;
  font-display: block;
  src: url(https://design.penpot.app/internal/gfonts/font/inter/v18/UcCO3FwrK3iLTeHuS_nVMrMxCp50SjIw2boKoduKmMEVuLyfAZJhiI2B.woff2) format(&apos;woff2&apos;);
  unicode-range: U+0460-052F, U+1C80-1C8A, U+20B4, U+2DE0-2DFF, U+A640-A69F, U+FE2E-FE2F;
}
/* cyrillic */
@font-face {
  font-family: &apos;Inter&apos;;
  font-style: normal;
  font-weight: 400;
  font-display: block;
  src: url(https://design.penpot.app/internal/gfonts/font/inter/v18/UcCO3FwrK3iLTeHuS_nVMrMxCp50SjIw2boKoduKmMEVuLyfAZthiI2B.woff2) format(&apos;woff2&apos;);
  unicode-range: U+0301, U+0400-045F, U+0490-0491, U+04B0-04B1, U+2116;
}
/* greek-ext */
@font-face {
  font-family: &apos;Inter&apos;;
  font-style: normal;
  font-weight: 400;
  font-display: block;
  src: url(https://design.penpot.app/internal/gfonts/font/inter/v18/UcCO3FwrK3iLTeHuS_nVMrMxCp50SjIw2boKoduKmMEVuLyfAZNhiI2B.woff2) format(&apos;woff2&apos;);
  unicode-range: U+1F00-1FFF;
}
/* greek */
@font-face {
  font-family: &apos;Inter&apos;;
  font-style: normal;
  font-weight: 400;
  font-display: block;
  src: url(https://design.penpot.app/internal/gfonts/font/inter/v18/UcCO3FwrK3iLTeHuS_nVMrMxCp50SjIw2boKoduKmMEVuLyfAZxhiI2B.woff2) format(&apos;woff2&apos;);
  unicode-range: U+0370-0377, U+037A-037F, U+0384-038A, U+038C, U+038E-03A1, U+03A3-03FF;
}
/* vietnamese */
@font-face {
  font-family: &apos;Inter&apos;;
  font-style: normal;
  font-weight: 400;
  font-display: block;
  src: url(https://design.penpot.app/internal/gfonts/font/inter/v18/UcCO3FwrK3iLTeHuS_nVMrMxCp50SjIw2boKoduKmMEVuLyfAZBhiI2B.woff2) format(&apos;woff2&apos;);
  unicode-range: U+0102-0103, U+0110-0111, U+0128-0129, U+0168-0169, U+01A0-01A1, U+01AF-01B0, U+0300-0301, U+0303-0304, U+0308-0309, U+0323, U+0329, U+1EA0-1EF9, U+20AB;
}
/* latin-ext */
@font-face {
  font-family: &apos;Inter&apos;;
  font-style: normal;
  font-weight: 400;
  font-display: block;
  src: url(https://design.penpot.app/internal/gfonts/font/inter/v18/UcCO3FwrK3iLTeHuS_nVMrMxCp50SjIw2boKoduKmMEVuLyfAZFhiI2B.woff2) format(&apos;woff2&apos;);
  unicode-range: U+0100-02BA, U+02BD-02C5, U+02C7-02CC, U+02CE-02D7, U+02DD-02FF, U+0304, U+0308, U+0329, U+1D00-1DBF, U+1E00-1E9F, U+1EF2-1EFF, U+2020, U+20A0-20AB, U+20AD-20C0, U+2113, U+2C60-2C7F, U+A720-A7FF;
}
/* latin */
@font-face {
  font-family: &apos;Inter&apos;;
  font-style: normal;
  font-weight: 400;
  font-display: block;
  src: url(https://design.penpot.app/internal/gfonts/font/inter/v18/UcCO3FwrK3iLTeHuS_nVMrMxCp50SjIw2boKoduKmMEVuLyfAZ9hiA.woff2) format(&apos;woff2&apos;);
  unicode-range: U+0000-00FF, U+0131, U+0152-0153, U+02BB-02BC, U+02C6, U+02DA, U+02DC, U+0304, U+0308, U+0329, U+2000-206F, U+20AC, U+2122, U+2191, U+2193, U+2212, U+2215, U+FEFF, U+FFFD;
}</style><g id="shape-e3c3a04a-51ed-80fe-8005-ffc945e85dcf"><g id="shape-47f979bc-f751-80f2-8005-7fdf48114da4"><g id="shape-47f979bc-f751-80f2-8005-7fdf48114da5"><path d="M194.806,45.986L117.907,1.490C114.479,-0.497,110.209,-0.497,106.782,1.490L2.186,62.021C0.817,62.814,0.000,64.238,0.000,65.824C0.000,65.875,0.009,77.802,0.009,77.802C0.009,80.428,1.420,82.884,3.691,84.197L78.065,127.235C80.098,128.412,82.377,129.000,84.657,129.000C86.936,129.000,89.216,128.412,91.249,127.235L193.317,68.170C195.588,66.857,197.000,64.410,197.000,61.776L197.000,49.797C197.000,48.211,196.183,46.787,194.806,45.986ZL194.806,45.986ZM105.811,5.710L188.511,53.575L96.598,106.767L13.898,58.894M3.775,64.751L10.733,60.718L93.433,108.583L89.648,110.774C86.560,112.564,82.724,112.564,79.628,110.774L3.774,66.867C3.221,66.551,3.161,66.023,3.161,65.809C3.161,65.596,3.221,65.068,3.775,64.751ZL3.775,64.751ZM193.835,61.759C193.835,63.259,193.027,64.657,191.734,65.408L89.665,124.473C86.578,126.263,82.742,126.263,79.646,124.473L5.272,81.443C3.979,80.693,3.171,79.295,3.171,77.794L3.171,70.181L78.065,113.516C80.098,114.693,82.378,115.281,84.657,115.281C86.936,115.281,89.216,114.693,91.249,113.516L193.844,54.143L193.835,61.759ZL193.835,61.759ZM193.231,50.846L191.683,51.741L109.016,3.903C111.346,2.829,114.093,2.931,116.339,4.235L193.238,48.732C193.791,49.047,193.851,49.576,193.851,49.789C193.851,50.002,193.791,50.531,193.231,50.846ZL193.231,50.846ZM39.702,82.391C40.136,81.633,41.105,81.377,41.863,81.812L54.647,89.212C55.404,89.647,55.659,90.619,55.225,91.378C54.936,91.889,54.400,92.170,53.856,92.170C53.592,92.170,53.320,92.102,53.065,91.957L40.280,84.557C39.523,84.122,39.268,83.150,39.702,82.391ZL39.702,82.391Z" style="fill: rgb(0, 0, 0); fill-opacity: 1;" class="fills" id="fills-47f979bc-f751-80f2-8005-7fdf48114da5"/></g><g id="shape-47f979bc-f751-80f2-8005-7fdf48114da6"><rect rx="17.5" ry="17.5" x="81" y="66" transform="matrix(1.000000, 0.000000, 0.000000, 1.000000, 0.000000, 0.000000)" width="122" height="35" style="fill: rgb(0, 0, 0); fill-opacity: 1;" class="fills" id="fills-47f979bc-f751-80f2-8005-7fdf48114da6"/></g><g transform="matrix(1.000000, 0.000000, 0.000000, 1.000000, 0.000000, 0.000000)" class="text-container" id="shape-47f979bc-f751-80f2-8005-7fdf48114da7"><defs><pattern patternUnits="userSpaceOnUse" x="81" y="65" width="54.483" height="21.667" id="fill-0-render-5-0"><rect width="54.483" height="21.667" style="fill: rgb(255, 255, 255); fill-opacity: 1;"/></pattern></defs><text x="114.75" y="93.833" dominant-baseline="ideographic" textLength="54.483" lengthAdjust="spacingAndGlyphs" style="text-transform: none; font-family: Inter; letter-spacing: normal; font-style: normal; font-weight: 400; white-space: pre; font-size: 18px; text-decoration: rgb(255, 255, 255); direction: ltr; fill: rgb(255, 255, 255); fill-opacity: 1;" class="fills" id="fills-47f979bc-f751-80f2-8005-7fdf48114da7">INDEX</text></g></g><g transform="matrix(1.000000, 0.000000, 0.000000, 1.000000, 0.000000, 0.000000)" class="text-container" id="shape-47f979bc-f751-80f2-8005-7fe0a11f8584"><defs><pattern patternUnits="userSpaceOnUse" x="265" y="47" width="48.133" height="21.667" id="fill-0-render-6-0"><rect width="48.133" height="21.667" style="fill: rgb(0, 0, 0); fill-opacity: 1;"/></pattern></defs><text x="265" y="75.833" dominant-baseline="ideographic" textLength="48.133" lengthAdjust="spacingAndGlyphs" style="text-transform: none; font-family: Inter; letter-spacing: normal; font-style: normal; font-weight: 400; white-space: pre; font-size: 18px; text-decoration: rgb(0, 0, 0); direction: ltr; fill: rgb(0, 0, 0); fill-opacity: 1;" class="fills" id="fills-47f979bc-f751-80f2-8005-7fe0a11f8584">009 ?</text></g></g></svg>