<svg width="84.189" xmlns="http://www.w3.org/2000/svg" height="84.19" fill="none"><path d="M82.626,57.783C81.762,57.783,81.063,58.482,81.063,59.345L81.063,67.002C81.063,74.755,74.755,81.063,67.001,81.063L59.345,81.063C58.482,81.063,57.783,81.763,57.783,82.626C57.783,83.489,58.482,84.188,59.345,84.188L67.001,84.188C76.478,84.188,84.189,76.478,84.189,67.001L84.189,59.344C84.189,58.481,83.490,57.782,82.626,57.783ZZ" style="fill: rgb(0, 0, 0); fill-opacity: 1;" class="fills"/><path d="M1.564,26.407C2.427,26.407,3.126,25.708,3.126,24.844L3.126,17.188C3.126,9.434,9.435,3.126,17.188,3.126L24.844,3.126C25.707,3.126,26.407,2.427,26.407,1.564C26.407,0.700,25.707,0.001,24.844,0.001L17.188,0.001C7.711,0.001,0.000,7.712,0.000,17.189L0.000,24.845C0.000,25.709,0.699,26.408,1.564,26.407ZZ" style="fill: rgb(0, 0, 0); fill-opacity: 1;" class="fills"/><path d="M67.001,0.001L59.345,0.001C58.481,0.001,57.782,0.700,57.782,1.563C57.782,2.427,58.481,3.126,59.345,3.126L67.001,3.126C74.755,3.126,81.063,9.435,81.063,17.188L81.063,24.844C81.063,25.707,81.762,26.407,82.625,26.407C83.488,26.407,84.188,25.707,84.188,24.844L84.188,17.188C84.188,7.711,76.477,0.000,67.001,0.001ZZ" style="fill: rgb(0, 0, 0); fill-opacity: 1;" class="fills"/><path d="M17.189,84.189L24.845,84.189C25.708,84.189,26.407,83.490,26.407,82.626C26.407,81.763,25.708,81.064,24.845,81.064L17.189,81.064C9.435,81.064,3.127,74.755,3.127,67.002L3.127,59.346C3.127,58.482,2.427,57.783,1.564,57.783C0.701,57.783,0.002,58.482,0.002,59.346L0.002,67.002C0.002,76.478,7.713,84.190,17.189,84.189ZZ" style="fill: rgb(0, 0, 0); fill-opacity: 1;" class="fills"/><path d="M16.607,16.427L16.607,30.052C16.607,30.915,17.306,31.614,18.169,31.614L31.794,31.614C32.657,31.614,33.357,30.915,33.357,30.052L33.357,16.427C33.357,15.564,32.657,14.864,31.794,14.864L18.169,14.864C17.306,14.864,16.607,15.564,16.607,16.427ZZM19.732,17.989L30.232,17.989L30.232,28.489L19.732,28.489Z" style="fill: rgb(0, 0, 0); fill-opacity: 1;" class="fills"/><path d="M52.396,31.615L66.021,31.615C66.884,31.615,67.583,30.916,67.583,30.052L67.583,16.427C67.583,15.564,66.884,14.865,66.021,14.865L52.396,14.865C51.532,14.865,50.833,15.564,50.833,16.427L50.833,30.052C50.833,30.916,51.532,31.615,52.396,31.615ZZM53.958,17.990L64.458,17.990L64.458,28.490L53.958,28.490Z" style="fill: rgb(0, 0, 0); fill-opacity: 1;" class="fills"/><path d="M31.794,52.575L18.169,52.575C17.305,52.575,16.606,53.274,16.606,54.137L16.606,67.762C16.606,68.626,17.305,69.325,18.169,69.325L31.794,69.325C32.657,69.325,33.356,68.626,33.356,67.762L33.356,54.137C33.356,53.274,32.657,52.575,31.794,52.575ZZM30.231,66.200L19.731,66.200L19.731,55.700L30.231,55.700Z" style="fill: rgb(0, 0, 0); fill-opacity: 1;" class="fills"/><path d="M52.283,72.439L57.490,72.439C58.353,72.439,59.052,71.740,59.052,70.876L59.052,65.665C59.052,64.802,58.353,64.103,57.490,64.103L52.283,64.103C51.419,64.103,50.720,64.802,50.720,65.665L50.720,70.876C50.720,71.740,51.419,72.439,52.283,72.439ZZM53.845,67.228L55.927,67.228L55.927,69.314L53.845,69.314Z" style="fill: rgb(0, 0, 0); fill-opacity: 1;" class="fills"/><path d="M52.283,56.478L57.490,56.478C57.658,56.478,57.814,56.431,57.966,56.380C57.794,56.634,57.669,56.919,57.669,57.247L57.669,62.458C57.669,63.322,58.369,64.021,59.232,64.021L64.443,64.021C65.306,64.021,66.005,63.322,66.005,62.458L66.005,57.247C66.005,56.384,65.306,55.685,64.443,55.685L59.232,55.685C59.064,55.685,58.908,55.732,58.755,55.782C58.927,55.529,59.052,55.243,59.052,54.915L59.052,49.704C59.052,48.841,58.353,48.142,57.490,48.142L52.283,48.142C51.419,48.142,50.720,48.841,50.720,49.704L50.720,54.915C50.720,55.779,51.419,56.478,52.283,56.478ZZM60.794,58.814L62.880,58.814L62.880,60.900L60.794,60.900ZM53.845,51.271L55.927,51.271L55.927,53.357L53.845,53.357Z" style="fill: rgb(0, 0, 0); fill-opacity: 1;" class="fills"/><path d="M39.493,46.259L44.700,46.259C45.563,46.259,46.262,45.560,46.262,44.696L46.262,39.489C46.262,38.626,45.563,37.927,44.700,37.927L39.493,37.927C38.629,37.927,37.930,38.626,37.930,39.489L37.930,44.696C37.930,45.560,38.629,46.259,39.493,46.259ZZM41.055,41.052L43.137,41.052L43.137,43.134L41.055,43.134Z" style="fill: rgb(0, 0, 0); fill-opacity: 1;" class="fills"/><path d="M66.087,49.712L66.087,54.923C66.087,55.786,66.786,56.485,67.649,56.485L72.860,56.485C73.723,56.485,74.423,55.786,74.423,54.923L74.423,49.712C74.423,48.849,73.723,48.149,72.860,48.149L67.649,48.149C66.786,48.149,66.087,48.849,66.087,49.712ZZM69.212,51.274L71.298,51.274L71.298,53.360L69.212,53.360Z" style="fill: rgb(0, 0, 0); fill-opacity: 1;" class="fills"/></svg>